<svg xmlns="http://www.w3.org/2000/svg" width="24" height="24" fill="currentColor" viewBox="0 0 24 24">
  <path d="M12 .5C5.65.5.5 5.65.5 12c0 5.1 3.3 9.4 7.9 10.95.6.1.8-.25.8-.55v-1.95c-3.2.7-3.85-1.55-3.85-1.55-.55-1.4-1.35-1.75-1.35-1.75-1.1-.75.1-.75.1-.75 1.2.1 1.8 1.25 1.8 1.25 1.1 1.85 2.85 1.3 3.55 1 .1-.8.45-1.3.8-1.6-2.55-.3-5.25-1.3-5.25-5.7 0-1.3.5-2.4 1.25-3.25-.1-.3-.55-1.45.1-3 0 0 1.05-.35 3.4 1.25a11.6 11.6 0 016.2 0c2.35-1.6 3.4-1.25 3.4-1.25.65 1.55.2 2.7.1 3 .8.85 1.25 1.95 1.25 3.25 0 4.4-2.7 5.4-5.25 5.7.45.4.85 1.15.85 2.3v3.4c0 .3.2.65.8.55 4.6-1.55 7.9-5.85 7.9-10.95C23.5 5.65 18.35.5 12 .5z"/>
</svg>