<svg xmlns="http://www.w3.org/2000/svg" width="24" height="24" fill="currentColor" viewBox="0 0 24 24">
  <path d="M23.44 4.83c-.81.36-1.69.6-2.61.7a4.5 4.5 0 001.98-2.48 9.1 9.1 0 01-2.88 1.1 4.52 4.52 0 00-7.7 4.12A12.8 12.8 0 013 4.89a4.51 4.51 0 001.4 6.02 4.49 4.49 0 01-2.04-.56v.06c0 2.15 1.53 3.94 3.55 4.35a4.5 4.5 0 01-2.03.08 4.52 4.52 0 004.21 3.13 9.05 9.05 0 01-5.6 1.93c-.36 0-.72-.02-1.07-.06a12.79 12.79 0 006.92 2.03c8.3 0 12.85-6.87 12.85-12.82 0-.2-.01-.4-.02-.6a9.21 9.21 0 002.26-2.35z"/>
</svg>